<mxfile host="app.diagrams.net" agent="Mozilla/5.0 (Windows NT 10.0; Win64; x64) AppleWebKit/537.36 (KHTML, like Gecko) Chrome/134.0.0.0 Safari/537.36" version="26.1.1">
  <diagram name="Page-1" id="bZhotMTWcYs_UATz3qSX">
    <mxGraphModel dx="1050" dy="557" grid="1" gridSize="10" guides="1" tooltips="1" connect="1" arrows="1" fold="1" page="1" pageScale="1" pageWidth="850" pageHeight="1100" math="0" shadow="0">
      <root>
        <mxCell id="0" />
        <mxCell id="1" parent="0" />
        <mxCell id="-f8CWy8SpjmAz3O0Fnp4-10" style="edgeStyle=orthogonalEdgeStyle;rounded=0;orthogonalLoop=1;jettySize=auto;html=1;" edge="1" parent="1">
          <mxGeometry relative="1" as="geometry">
            <mxPoint x="10" y="490" as="targetPoint" />
            <mxPoint x="210" y="250" as="sourcePoint" />
            <Array as="points">
              <mxPoint x="210" y="251" />
              <mxPoint x="11" y="251" />
            </Array>
          </mxGeometry>
        </mxCell>
        <mxCell id="-f8CWy8SpjmAz3O0Fnp4-16" style="edgeStyle=orthogonalEdgeStyle;rounded=0;orthogonalLoop=1;jettySize=auto;html=1;" edge="1" parent="1" source="-f8CWy8SpjmAz3O0Fnp4-1">
          <mxGeometry relative="1" as="geometry">
            <mxPoint x="500" y="380" as="targetPoint" />
          </mxGeometry>
        </mxCell>
        <mxCell id="-f8CWy8SpjmAz3O0Fnp4-17" value="route requests" style="edgeLabel;html=1;align=center;verticalAlign=middle;resizable=0;points=[];" vertex="1" connectable="0" parent="-f8CWy8SpjmAz3O0Fnp4-16">
          <mxGeometry x="-0.7107" y="2" relative="1" as="geometry">
            <mxPoint as="offset" />
          </mxGeometry>
        </mxCell>
        <mxCell id="-f8CWy8SpjmAz3O0Fnp4-18" style="edgeStyle=orthogonalEdgeStyle;rounded=0;orthogonalLoop=1;jettySize=auto;html=1;" edge="1" parent="1" source="-f8CWy8SpjmAz3O0Fnp4-1">
          <mxGeometry relative="1" as="geometry">
            <mxPoint x="690" y="370" as="targetPoint" />
          </mxGeometry>
        </mxCell>
        <mxCell id="-f8CWy8SpjmAz3O0Fnp4-19" value="route requests" style="edgeLabel;html=1;align=center;verticalAlign=middle;resizable=0;points=[];" vertex="1" connectable="0" parent="-f8CWy8SpjmAz3O0Fnp4-18">
          <mxGeometry x="-0.5592" y="-3" relative="1" as="geometry">
            <mxPoint as="offset" />
          </mxGeometry>
        </mxCell>
        <mxCell id="-f8CWy8SpjmAz3O0Fnp4-1" value="API Gateway&lt;div&gt;&lt;br&gt;&lt;/div&gt;" style="rounded=0;whiteSpace=wrap;html=1;" vertex="1" parent="1">
          <mxGeometry x="240" y="200" width="360" height="60" as="geometry" />
        </mxCell>
        <mxCell id="-f8CWy8SpjmAz3O0Fnp4-55" style="edgeStyle=orthogonalEdgeStyle;rounded=0;orthogonalLoop=1;jettySize=auto;html=1;" edge="1" parent="1" source="-f8CWy8SpjmAz3O0Fnp4-2">
          <mxGeometry relative="1" as="geometry">
            <mxPoint x="220" y="160" as="targetPoint" />
          </mxGeometry>
        </mxCell>
        <mxCell id="-f8CWy8SpjmAz3O0Fnp4-2" value="Authentication service" style="rounded=0;whiteSpace=wrap;html=1;" vertex="1" parent="1">
          <mxGeometry x="70" y="390" width="120" height="60" as="geometry" />
        </mxCell>
        <mxCell id="-f8CWy8SpjmAz3O0Fnp4-29" value="" style="edgeStyle=orthogonalEdgeStyle;rounded=0;orthogonalLoop=1;jettySize=auto;html=1;" edge="1" parent="1" source="-f8CWy8SpjmAz3O0Fnp4-3" target="-f8CWy8SpjmAz3O0Fnp4-8">
          <mxGeometry relative="1" as="geometry" />
        </mxCell>
        <mxCell id="-f8CWy8SpjmAz3O0Fnp4-30" value="reads/write data" style="edgeLabel;html=1;align=center;verticalAlign=middle;resizable=0;points=[];" vertex="1" connectable="0" parent="-f8CWy8SpjmAz3O0Fnp4-29">
          <mxGeometry x="-0.17" y="1" relative="1" as="geometry">
            <mxPoint as="offset" />
          </mxGeometry>
        </mxCell>
        <mxCell id="-f8CWy8SpjmAz3O0Fnp4-3" value="community service" style="rounded=0;whiteSpace=wrap;html=1;" vertex="1" parent="1">
          <mxGeometry x="280" y="390" width="120" height="60" as="geometry" />
        </mxCell>
        <mxCell id="-f8CWy8SpjmAz3O0Fnp4-31" value="" style="edgeStyle=orthogonalEdgeStyle;rounded=0;orthogonalLoop=1;jettySize=auto;html=1;" edge="1" parent="1" source="-f8CWy8SpjmAz3O0Fnp4-4" target="-f8CWy8SpjmAz3O0Fnp4-7">
          <mxGeometry relative="1" as="geometry" />
        </mxCell>
        <mxCell id="-f8CWy8SpjmAz3O0Fnp4-32" value="cashes posts" style="edgeLabel;html=1;align=center;verticalAlign=middle;resizable=0;points=[];" vertex="1" connectable="0" parent="-f8CWy8SpjmAz3O0Fnp4-31">
          <mxGeometry x="-0.37" y="-2" relative="1" as="geometry">
            <mxPoint as="offset" />
          </mxGeometry>
        </mxCell>
        <mxCell id="-f8CWy8SpjmAz3O0Fnp4-34" style="edgeStyle=orthogonalEdgeStyle;rounded=0;orthogonalLoop=1;jettySize=auto;html=1;" edge="1" parent="1" source="-f8CWy8SpjmAz3O0Fnp4-4">
          <mxGeometry relative="1" as="geometry">
            <mxPoint x="430" y="510" as="targetPoint" />
          </mxGeometry>
        </mxCell>
        <mxCell id="-f8CWy8SpjmAz3O0Fnp4-36" value="reads/write data" style="edgeLabel;html=1;align=center;verticalAlign=middle;resizable=0;points=[];" vertex="1" connectable="0" parent="-f8CWy8SpjmAz3O0Fnp4-34">
          <mxGeometry x="0.0223" y="3" relative="1" as="geometry">
            <mxPoint as="offset" />
          </mxGeometry>
        </mxCell>
        <mxCell id="-f8CWy8SpjmAz3O0Fnp4-52" style="edgeStyle=orthogonalEdgeStyle;rounded=0;orthogonalLoop=1;jettySize=auto;html=1;entryX=0;entryY=0.25;entryDx=0;entryDy=0;" edge="1" parent="1" source="-f8CWy8SpjmAz3O0Fnp4-4" target="-f8CWy8SpjmAz3O0Fnp4-9">
          <mxGeometry relative="1" as="geometry" />
        </mxCell>
        <mxCell id="-f8CWy8SpjmAz3O0Fnp4-53" value="sends log" style="edgeLabel;html=1;align=center;verticalAlign=middle;resizable=0;points=[];" vertex="1" connectable="0" parent="-f8CWy8SpjmAz3O0Fnp4-52">
          <mxGeometry x="0.0086" y="4" relative="1" as="geometry">
            <mxPoint as="offset" />
          </mxGeometry>
        </mxCell>
        <mxCell id="-f8CWy8SpjmAz3O0Fnp4-4" value="post service" style="rounded=0;whiteSpace=wrap;html=1;" vertex="1" parent="1">
          <mxGeometry x="460" y="390" width="120" height="60" as="geometry" />
        </mxCell>
        <mxCell id="-f8CWy8SpjmAz3O0Fnp4-37" style="edgeStyle=orthogonalEdgeStyle;rounded=0;orthogonalLoop=1;jettySize=auto;html=1;" edge="1" parent="1" source="-f8CWy8SpjmAz3O0Fnp4-5">
          <mxGeometry relative="1" as="geometry">
            <mxPoint x="810" y="620" as="targetPoint" />
          </mxGeometry>
        </mxCell>
        <mxCell id="-f8CWy8SpjmAz3O0Fnp4-48" value="" style="edgeStyle=orthogonalEdgeStyle;rounded=0;orthogonalLoop=1;jettySize=auto;html=1;" edge="1" parent="1" source="-f8CWy8SpjmAz3O0Fnp4-5" target="-f8CWy8SpjmAz3O0Fnp4-9">
          <mxGeometry relative="1" as="geometry" />
        </mxCell>
        <mxCell id="-f8CWy8SpjmAz3O0Fnp4-49" value="sends log" style="edgeLabel;html=1;align=center;verticalAlign=middle;resizable=0;points=[];" vertex="1" connectable="0" parent="-f8CWy8SpjmAz3O0Fnp4-48">
          <mxGeometry x="0.1822" y="2" relative="1" as="geometry">
            <mxPoint as="offset" />
          </mxGeometry>
        </mxCell>
        <mxCell id="-f8CWy8SpjmAz3O0Fnp4-5" value="story service" style="rounded=0;whiteSpace=wrap;html=1;" vertex="1" parent="1">
          <mxGeometry x="640" y="390" width="120" height="60" as="geometry" />
        </mxCell>
        <mxCell id="-f8CWy8SpjmAz3O0Fnp4-41" style="edgeStyle=orthogonalEdgeStyle;rounded=0;orthogonalLoop=1;jettySize=auto;html=1;" edge="1" parent="1" source="-f8CWy8SpjmAz3O0Fnp4-6">
          <mxGeometry relative="1" as="geometry">
            <mxPoint x="300" y="510" as="targetPoint" />
          </mxGeometry>
        </mxCell>
        <mxCell id="-f8CWy8SpjmAz3O0Fnp4-42" value="reads data" style="edgeLabel;html=1;align=center;verticalAlign=middle;resizable=0;points=[];" vertex="1" connectable="0" parent="-f8CWy8SpjmAz3O0Fnp4-41">
          <mxGeometry x="0.1171" y="1" relative="1" as="geometry">
            <mxPoint as="offset" />
          </mxGeometry>
        </mxCell>
        <mxCell id="-f8CWy8SpjmAz3O0Fnp4-43" style="edgeStyle=orthogonalEdgeStyle;rounded=0;orthogonalLoop=1;jettySize=auto;html=1;" edge="1" parent="1" source="-f8CWy8SpjmAz3O0Fnp4-6">
          <mxGeometry relative="1" as="geometry">
            <mxPoint x="130" y="671.5999755859375" as="targetPoint" />
          </mxGeometry>
        </mxCell>
        <mxCell id="-f8CWy8SpjmAz3O0Fnp4-6" value="Dashboard service" style="rounded=0;whiteSpace=wrap;html=1;" vertex="1" parent="1">
          <mxGeometry x="70" y="470" width="120" height="60" as="geometry" />
        </mxCell>
        <mxCell id="-f8CWy8SpjmAz3O0Fnp4-50" value="" style="edgeStyle=orthogonalEdgeStyle;rounded=0;orthogonalLoop=1;jettySize=auto;html=1;" edge="1" parent="1" source="-f8CWy8SpjmAz3O0Fnp4-7" target="-f8CWy8SpjmAz3O0Fnp4-9">
          <mxGeometry relative="1" as="geometry" />
        </mxCell>
        <mxCell id="-f8CWy8SpjmAz3O0Fnp4-51" value="sends log" style="edgeLabel;html=1;align=center;verticalAlign=middle;resizable=0;points=[];" vertex="1" connectable="0" parent="-f8CWy8SpjmAz3O0Fnp4-50">
          <mxGeometry x="-0.0067" relative="1" as="geometry">
            <mxPoint as="offset" />
          </mxGeometry>
        </mxCell>
        <mxCell id="-f8CWy8SpjmAz3O0Fnp4-7" value="Redis cache" style="rounded=0;whiteSpace=wrap;html=1;" vertex="1" parent="1">
          <mxGeometry x="460" y="490" width="120" height="50" as="geometry" />
        </mxCell>
        <mxCell id="-f8CWy8SpjmAz3O0Fnp4-8" value="Database" style="shape=cylinder3;whiteSpace=wrap;html=1;boundedLbl=1;backgroundOutline=1;size=15;" vertex="1" parent="1">
          <mxGeometry x="310" y="490" width="60" height="75" as="geometry" />
        </mxCell>
        <mxCell id="-f8CWy8SpjmAz3O0Fnp4-9" value="opensearch" style="rounded=0;whiteSpace=wrap;html=1;" vertex="1" parent="1">
          <mxGeometry x="640" y="485" width="120" height="60" as="geometry" />
        </mxCell>
        <mxCell id="-f8CWy8SpjmAz3O0Fnp4-14" value="" style="endArrow=classic;html=1;rounded=0;" edge="1" parent="1">
          <mxGeometry width="50" height="50" relative="1" as="geometry">
            <mxPoint x="310" y="270" as="sourcePoint" />
            <mxPoint x="310" y="380" as="targetPoint" />
          </mxGeometry>
        </mxCell>
        <mxCell id="-f8CWy8SpjmAz3O0Fnp4-15" value="routes requests" style="edgeLabel;html=1;align=center;verticalAlign=middle;resizable=0;points=[];" vertex="1" connectable="0" parent="-f8CWy8SpjmAz3O0Fnp4-14">
          <mxGeometry x="-0.6" y="4" relative="1" as="geometry">
            <mxPoint as="offset" />
          </mxGeometry>
        </mxCell>
        <mxCell id="-f8CWy8SpjmAz3O0Fnp4-20" value="" style="endArrow=classic;html=1;rounded=0;" edge="1" parent="1">
          <mxGeometry width="50" height="50" relative="1" as="geometry">
            <mxPoint x="10" y="490" as="sourcePoint" />
            <mxPoint x="64" y="490" as="targetPoint" />
          </mxGeometry>
        </mxCell>
        <mxCell id="-f8CWy8SpjmAz3O0Fnp4-21" value="route request" style="edgeLabel;html=1;align=center;verticalAlign=middle;resizable=0;points=[];" vertex="1" connectable="0" parent="-f8CWy8SpjmAz3O0Fnp4-20">
          <mxGeometry x="0.0667" y="2" relative="1" as="geometry">
            <mxPoint as="offset" />
          </mxGeometry>
        </mxCell>
        <mxCell id="-f8CWy8SpjmAz3O0Fnp4-22" value="" style="endArrow=classic;html=1;rounded=0;" edge="1" parent="1">
          <mxGeometry width="50" height="50" relative="1" as="geometry">
            <mxPoint x="110" y="270" as="sourcePoint" />
            <mxPoint x="110" y="380" as="targetPoint" />
          </mxGeometry>
        </mxCell>
        <mxCell id="-f8CWy8SpjmAz3O0Fnp4-23" value="Text" style="edgeLabel;html=1;align=center;verticalAlign=middle;resizable=0;points=[];" vertex="1" connectable="0" parent="-f8CWy8SpjmAz3O0Fnp4-22">
          <mxGeometry x="0.0727" y="-1" relative="1" as="geometry">
            <mxPoint as="offset" />
          </mxGeometry>
        </mxCell>
        <mxCell id="-f8CWy8SpjmAz3O0Fnp4-24" value="route request" style="edgeLabel;html=1;align=center;verticalAlign=middle;resizable=0;points=[];" vertex="1" connectable="0" parent="-f8CWy8SpjmAz3O0Fnp4-22">
          <mxGeometry x="0.0545" relative="1" as="geometry">
            <mxPoint as="offset" />
          </mxGeometry>
        </mxCell>
        <mxCell id="-f8CWy8SpjmAz3O0Fnp4-26" value="User" style="shape=umlActor;verticalLabelPosition=bottom;verticalAlign=top;html=1;outlineConnect=0;" vertex="1" parent="1">
          <mxGeometry x="60" y="30" width="30" height="60" as="geometry" />
        </mxCell>
        <mxCell id="-f8CWy8SpjmAz3O0Fnp4-27" value="Admin" style="shape=umlActor;verticalLabelPosition=bottom;verticalAlign=top;html=1;outlineConnect=0;" vertex="1" parent="1">
          <mxGeometry x="325" y="30" width="30" height="60" as="geometry" />
        </mxCell>
        <mxCell id="-f8CWy8SpjmAz3O0Fnp4-28" value="Google OAuth2" style="shape=umlActor;verticalLabelPosition=bottom;verticalAlign=top;html=1;outlineConnect=0;" vertex="1" parent="1">
          <mxGeometry x="630" y="30" width="30" height="60" as="geometry" />
        </mxCell>
        <mxCell id="-f8CWy8SpjmAz3O0Fnp4-35" value="" style="endArrow=classic;html=1;rounded=0;" edge="1" parent="1">
          <mxGeometry width="50" height="50" relative="1" as="geometry">
            <mxPoint x="430" y="505" as="sourcePoint" />
            <mxPoint x="390" y="510" as="targetPoint" />
          </mxGeometry>
        </mxCell>
        <mxCell id="-f8CWy8SpjmAz3O0Fnp4-38" value="" style="endArrow=classic;html=1;rounded=0;" edge="1" parent="1">
          <mxGeometry width="50" height="50" relative="1" as="geometry">
            <mxPoint x="810" y="620" as="sourcePoint" />
            <mxPoint x="340" y="620" as="targetPoint" />
          </mxGeometry>
        </mxCell>
        <mxCell id="-f8CWy8SpjmAz3O0Fnp4-39" value="" style="endArrow=classic;html=1;rounded=0;" edge="1" parent="1">
          <mxGeometry width="50" height="50" relative="1" as="geometry">
            <mxPoint x="340" y="620" as="sourcePoint" />
            <mxPoint x="340" y="580" as="targetPoint" />
          </mxGeometry>
        </mxCell>
        <mxCell id="-f8CWy8SpjmAz3O0Fnp4-40" value="reads/write data" style="edgeLabel;html=1;align=center;verticalAlign=middle;resizable=0;points=[];" vertex="1" connectable="0" parent="-f8CWy8SpjmAz3O0Fnp4-39">
          <mxGeometry x="-0.13" y="1" relative="1" as="geometry">
            <mxPoint as="offset" />
          </mxGeometry>
        </mxCell>
        <mxCell id="-f8CWy8SpjmAz3O0Fnp4-45" value="" style="endArrow=classic;html=1;rounded=0;" edge="1" parent="1">
          <mxGeometry width="50" height="50" relative="1" as="geometry">
            <mxPoint x="130" y="670" as="sourcePoint" />
            <mxPoint x="510" y="670" as="targetPoint" />
          </mxGeometry>
        </mxCell>
        <mxCell id="-f8CWy8SpjmAz3O0Fnp4-46" value="" style="endArrow=classic;html=1;rounded=0;" edge="1" parent="1">
          <mxGeometry width="50" height="50" relative="1" as="geometry">
            <mxPoint x="510" y="670" as="sourcePoint" />
            <mxPoint x="510" y="550" as="targetPoint" />
          </mxGeometry>
        </mxCell>
        <mxCell id="-f8CWy8SpjmAz3O0Fnp4-47" value="cashes dashboard data" style="edgeLabel;html=1;align=center;verticalAlign=middle;resizable=0;points=[];" vertex="1" connectable="0" parent="-f8CWy8SpjmAz3O0Fnp4-46">
          <mxGeometry x="0.0567" y="-2" relative="1" as="geometry">
            <mxPoint as="offset" />
          </mxGeometry>
        </mxCell>
        <mxCell id="-f8CWy8SpjmAz3O0Fnp4-56" value="" style="endArrow=classic;html=1;rounded=0;" edge="1" parent="1">
          <mxGeometry width="50" height="50" relative="1" as="geometry">
            <mxPoint x="220" y="160" as="sourcePoint" />
            <mxPoint x="640" y="160" as="targetPoint" />
          </mxGeometry>
        </mxCell>
        <mxCell id="-f8CWy8SpjmAz3O0Fnp4-58" value="&lt;strong style=&quot;color: rgb(64, 64, 64); font-family: Inter, system-ui, -apple-system, BlinkMacSystemFont, &amp;quot;Segoe UI&amp;quot;, Roboto, &amp;quot;Noto Sans&amp;quot;, Ubuntu, Cantarell, &amp;quot;Helvetica Neue&amp;quot;, Oxygen, &amp;quot;Open Sans&amp;quot;, sans-serif; font-size: 16.002px; text-align: left; text-wrap-mode: wrap;&quot;&gt;Authenticates users&lt;/strong&gt;" style="edgeLabel;html=1;align=center;verticalAlign=middle;resizable=0;points=[];" vertex="1" connectable="0" parent="-f8CWy8SpjmAz3O0Fnp4-56">
          <mxGeometry x="-0.701" y="-3" relative="1" as="geometry">
            <mxPoint as="offset" />
          </mxGeometry>
        </mxCell>
        <mxCell id="-f8CWy8SpjmAz3O0Fnp4-57" value="" style="endArrow=classic;html=1;rounded=0;" edge="1" parent="1">
          <mxGeometry width="50" height="50" relative="1" as="geometry">
            <mxPoint x="640" y="160" as="sourcePoint" />
            <mxPoint x="640" y="120" as="targetPoint" />
          </mxGeometry>
        </mxCell>
      </root>
    </mxGraphModel>
  </diagram>
</mxfile>
